<?xml version="1.0" encoding="UTF-8"?>
<svg id="Layer_1" data-name="Layer 1" xmlns="http://www.w3.org/2000/svg" viewBox="0 0 48 48">
  <defs>
    <style>
      .cls-1 {
        fill: #ff8200;
      }

      .cls-1, .cls-2, .cls-3 {
        stroke-width: 0px;
      }

      .cls-2 {
        fill: #ffc343;
      }

      .cls-3 {
        fill: #ffa221;
      }
    </style>
  </defs>
  <path class="cls-2" d="M24.88,2.485h0c1.939,3.064,5.905,4.127,9.116,2.443h0c.677-.355,1.493.116,1.524.88h0c.147,3.623,3.05,6.526,6.673,6.673h0c.764.031,1.235.847.88,1.524h0c-1.684,3.211-.622,7.177,2.443,9.116h0c.646.409.646,1.351,0,1.76h0c-3.064,1.939-4.127,5.905-2.443,9.116h0c.355.677-.116,1.493-.88,1.524h0c-3.623.147-6.526,3.05-6.673,6.673h0c-.031.764-.847,1.235-1.524.88h0c-3.211-1.684-7.177-.622-9.116,2.443h0c-.409.646-1.351.646-1.76,0h0c-1.939-3.064-5.905-4.127-9.116-2.443h0c-.677.355-1.493-.116-1.524-.88h0c-.147-3.623-3.05-6.526-6.673-6.673h0c-.764-.031-1.235-.847-.88-1.524h0c1.684-3.211.622-7.177-2.443-9.116h0c-.646-.409-.646-1.351,0-1.76h0c3.064-1.939,4.127-5.905,2.443-9.116h0c-.355-.677.116-1.493.88-1.524h0c3.623-.147,6.526-3.05,6.673-6.673h0c.031-.764.847-1.235,1.524-.88h0c3.211,1.684,7.177.622,9.116-2.443h0c.409-.646,1.351-.646,1.76,0Z"/>
  <circle class="cls-3" cx="24" cy="24" r="16"/>
  <path class="cls-1" d="M37.316,15.134c.435,1.55.684,3.177.684,4.866,0,9.941-8.059,18-18,18-1.689,0-3.316-.249-4.866-.684,2.538,1.693,5.586,2.684,8.866,2.684,8.837,0,16-7.163,16-16,0-3.28-.991-6.328-2.684-8.866Z"/>
  <path class="cls-2" d="M15.572,17.929c-.227,0-.455-.077-.642-.234-.424-.355-.479-.986-.123-1.409,1.119-1.333,2.545-2.427,4.121-3.162,1.576-.736,3.33-1.125,5.071-1.125.553,0,1,.448,1,1s-.447,1-1,1c-1.451,0-2.912.324-4.226.937-1.314.613-2.502,1.524-3.436,2.635-.197.235-.48.357-.767.357Z"/>
  <path class="cls-2" d="M13.168,23.09c-.059,0-.118-.005-.178-.016-.544-.098-.905-.618-.808-1.161.03-.17.064-.339.102-.508.037-.172.079-.344.126-.514.145-.533.693-.843,1.227-.704.533.145.848.694.703,1.227-.037.139-.071.278-.103.418-.031.144-.06.288-.086.434-.087.484-.509.823-.983.823Z"/>
</svg>